<svg xmlns="http://www.w3.org/2000/svg" viewBox="150 40 300 510"><ellipse class="mascot-shadow" cx="300" cy="520" rx="110" ry="14" fill="#051f20" opacity=".12"></ellipse><g class="mascot-body"><rect x="250" y="440" width="34" height="62" rx="16" fill="#051f20"></rect><rect x="316" y="440" width="34" height="62" rx="16" fill="#051f20"></rect><rect x="236" y="340" width="128" height="120" rx="44" fill="#235347" stroke="#051f20" stroke-width="5"></rect><path d="M300 344 v40" stroke="#daf1de" stroke-width="5" stroke-linecap="round"></path><g class="mascot-arm-l"><path d="M244 380 q-50 10 -46 60" stroke="#051f20" stroke-width="22" fill="none" stroke-linecap="round"></path><g transform="translate(200 448) scale(1.15)"><path class="mascot-steam" d="M-4 -34 q6 -8 0 -16 M8 -34 q6 -8 0 -16" stroke="#8eb69b" stroke-width="4" fill="none" stroke-linecap="round"></path><path d="M-16 -26 h40 l-5 44 a6 6 0 0 1 -6 5 h-18 a6 6 0 0 1 -6 -5 z" fill="#fcfffd" stroke="#051f20" stroke-width="4" stroke-linejoin="round"></path><rect x="-14" y="-6" width="36" height="13" fill="#235347"></rect><rect x="-19" y="-32" width="46" height="9" rx="4" fill="#051f20"></rect></g></g><g class="mascot-arm-r"><path d="M356 380 q50 10 46 60" stroke="#051f20" stroke-width="22" fill="none" stroke-linecap="round"></path><g transform="translate(404 462)"><path d="M-30 -20 q-14 40 6 52 h48 q20 -12 6 -52 z" fill="#d9b779" stroke="#051f20" stroke-width="4" stroke-linejoin="round"></path><path d="M-26 -22 q26 -14 52 0 l-6 8 q-20 -8 -40 0 z" fill="#b8924f" stroke="#051f20" stroke-width="4" stroke-linejoin="round"></path><circle cx="0" cy="12" r="14" fill="#fcfffd" stroke="#051f20" stroke-width="3.5"></circle><text x="0" y="18" text-anchor="middle" font-family="Helvetica, Arial" font-weight="700" font-size="16" fill="#051f20">O</text></g></g><g class="mascot-head"><path class="mascot-loop" d="M270 92 q30 -46 60 0" stroke="#8eb69b" stroke-width="10" fill="none" stroke-linecap="round"></path><rect x="276" y="92" width="48" height="34" rx="11" fill="#8eb69b" stroke="#051f20" stroke-width="5"></rect><rect x="196" y="116" width="208" height="236" rx="54" fill="#051f20"></rect><rect x="266" y="134" width="68" height="14" rx="7" fill="#fcfffd" opacity=".3"></rect><rect x="222" y="166" width="156" height="128" rx="34" fill="#fcfffd"></rect><g class="mascot-eyes"><circle cx="266" cy="222" r="13" fill="#051f20"></circle><circle cx="334" cy="222" r="13" fill="#051f20"></circle><circle cx="270" cy="218" r="4.2" fill="#fff"></circle><circle cx="338" cy="218" r="4.2" fill="#fff"></circle></g><ellipse cx="248" cy="252" rx="9" ry="5" fill="#f4b6a8" opacity=".8"></ellipse><ellipse cx="352" cy="252" rx="9" ry="5" fill="#f4b6a8" opacity=".8"></ellipse><ellipse cx="300" cy="264" rx="9" ry="10" fill="#051f20"></ellipse><rect x="240" y="314" width="120" height="12" rx="6" fill="#fcfffd" opacity=".3"></rect></g><g class="mascot-bubble"><rect x="380" y="70" width="70" height="44" rx="14" fill="#fff" stroke="#051f20" stroke-width="4"></rect><circle cx="400" cy="92" r="4.5" fill="#051f20"></circle><circle cx="415" cy="92" r="4.5" fill="#051f20"></circle><circle cx="430" cy="92" r="4.5" fill="#051f20"></circle></g></g></svg>